<svg width="20" height="22" viewBox="0 0 20 22" fill="none" xmlns="http://www.w3.org/2000/svg">
<path d="M5.08848 3.76364L4.08847 4.54453C2.57182 5.72887 1.81348 6.32105 1.40674 7.15601C1 7.99097 1 8.95552 1 10.8846V12.9767C1 16.763 1 18.6562 2.17157 19.8325C3.11466 20.7793 4.52043 20.964 7 21V17.0057C7 16.0738 7 15.6078 7.15224 15.2403C7.35523 14.7502 7.74458 14.3609 8.2346 14.1579C8.6022 14.0057 9.0681 14.0057 10 14.0057C10.9319 14.0057 11.3978 14.0057 11.7654 14.1579C12.2554 14.3609 12.6448 14.7502 12.8478 15.2403C13 15.6078 13 16.0738 13 17.0057V21C15.4796 20.964 16.8853 20.7793 17.8284 19.8325C19 18.6562 19 16.763 19 12.9767V10.8846C19 8.95552 19 7.99097 18.5933 7.15601C18.1865 6.32105 17.4282 5.72887 15.9115 4.54453L14.9115 3.76364C12.5521 1.92121 11.3724 1 10 1C8.6276 1 7.44787 1.92121 5.08848 3.76364Z" stroke="white" stroke-width="1.5" stroke-linejoin="round"/>
</svg>
